<?xml version="1.0" encoding="UTF-8" standalone="no"?>
<!-- Created with Inkscape (http://www.inkscape.org/) -->

<svg
   width="210mm"
   height="297mm"
   viewBox="0 0 210 297"
   version="1.1"
   id="svg5"
   inkscape:version="1.1.1 (3bf5ae0d25, 2021-09-20)"
   sodipodi:docname="mainbcgr.svg"
   xmlns:inkscape="http://www.inkscape.org/namespaces/inkscape"
   xmlns:sodipodi="http://sodipodi.sourceforge.net/DTD/sodipodi-0.dtd"
   xmlns="http://www.w3.org/2000/svg"
   xmlns:svg="http://www.w3.org/2000/svg">
  <sodipodi:namedview
     id="namedview7"
     pagecolor="#505050"
     bordercolor="#eeeeee"
     borderopacity="1"
     inkscape:pageshadow="0"
     inkscape:pageopacity="0"
     inkscape:pagecheckerboard="0"
     inkscape:document-units="mm"
     showgrid="false"
     inkscape:zoom="0.73406285"
     inkscape:cx="397.10496"
     inkscape:cy="670.92348"
     inkscape:window-width="1920"
     inkscape:window-height="1009"
     inkscape:window-x="-8"
     inkscape:window-y="-8"
     inkscape:window-maximized="1"
     inkscape:current-layer="layer1" />
  <defs
     id="defs2" />
  <g
     inkscape:label="Layer 1"
     inkscape:groupmode="layer"
     id="layer1">
    <path
       style="fill:none;stroke:#000000;stroke-width:0.264583px;stroke-linecap:butt;stroke-linejoin:miter;stroke-opacity:1"
       d="M 1.0813107,41.089804 57.669903,1.8021845 204.00728,44.694175 15.498786,9.371359 80.737862,173.37014 c 0,0 -24.509708,-183.82281 34.962378,-165.4405284 59.47209,18.3822814 86.50486,-6.1274271 86.50486,-6.1274271 0,0 -83.9818,49.7402915 -73.16869,98.7597055 C 139.84951,149.58131 5.7669903,85.063107 5.7669903,85.063107 c 0,0 199.3215997,-14.777913 185.6249997,10.813105 -13.6966,25.591018 -37.125,74.249998 -37.125,74.249998 L 155.3483,5.0461163 95.515775,69.564321 c 0,0 125.071605,138.407769 95.876215,143.093439 C 162.1966,217.34344 21.98665,108.4915 17.300971,121.82767 c -4.68568,13.33616 58.751213,76.41262 58.751213,76.41262 L 197.87985,124.71116 c 0,0 -143.814316,-102.364073 -154.266987,-79.296111 C 33.160194,68.483008 14.777912,185.98543 14.777912,185.98543 c 0,0 54.425969,63.07646 83.621359,80.01699 C 127.59466,282.94295 201.12378,169.0449 201.12378,169.0449 L 30.997572,257.35194 c 0,0 5.406554,-77.85437 40.729368,-48.65898 35.32282,29.19539 114.25849,41.45024 114.25849,41.45024 l -45.77548,40.36893 68.48301,-23.42841 -123.99029,4.32525 -59.111651,20.5449 c 0,0 -2.162621,-50.46116 -5.046116,-65.23907 -2.883496,-14.77791 -63.797329,-10.09223 30.997573,37.48544 94.794904,47.57767 55.867714,29.91625 55.867714,29.91625"
       id="path60" />
  </g>
</svg>
