<?xml version="1.0" encoding="UTF-8" standalone="no"?>
<!-- Created with Inkscape (http://www.inkscape.org/) -->

<svg
   width="210mm"
   height="297mm"
   viewBox="0 0 210 297"
   version="1.1"
   id="svg5"
   inkscape:version="1.1.1 (3bf5ae0d25, 2021-09-20)"
   sodipodi:docname="mainbcgr3.svg"
   xmlns:inkscape="http://www.inkscape.org/namespaces/inkscape"
   xmlns:sodipodi="http://sodipodi.sourceforge.net/DTD/sodipodi-0.dtd"
   xmlns="http://www.w3.org/2000/svg"
   xmlns:svg="http://www.w3.org/2000/svg">
  <sodipodi:namedview
     id="namedview7"
     pagecolor="#505050"
     bordercolor="#eeeeee"
     borderopacity="1"
     inkscape:pageshadow="0"
     inkscape:pageopacity="0"
     inkscape:pagecheckerboard="0"
     inkscape:document-units="mm"
     showgrid="false"
     inkscape:zoom="1.4142136"
     inkscape:cx="297.3384"
     inkscape:cy="379.36279"
     inkscape:window-width="1920"
     inkscape:window-height="1009"
     inkscape:window-x="-8"
     inkscape:window-y="-8"
     inkscape:window-maximized="1"
     inkscape:current-layer="layer1"
     showguides="false" />
  <defs
     id="defs2">
    <linearGradient
       id="linearGradient3352"
       inkscape:swatch="solid">
      <stop
         style="stop-color:#000000;stop-opacity:1;"
         offset="0"
         id="stop3350" />
    </linearGradient>
    <filter
       inkscape:collect="always"
       style="color-interpolation-filters:sRGB"
       id="filter3987"
       x="-0.013788237"
       y="-0.010213808"
       width="1.0277373"
       height="1.0203335">
      <feGaussianBlur
         inkscape:collect="always"
         stdDeviation="1.1380288"
         id="feGaussianBlur3989" />
    </filter>
  </defs>
  <g
     inkscape:label="Layer 1"
     inkscape:groupmode="layer"
     id="layer1">
    <path
       style="fill:none;stroke:#000000;stroke-width:0.264583px;stroke-linecap:butt;stroke-linejoin:miter;stroke-opacity:1"
       d="M 1.0813107,41.089804 57.669903,1.8021845 204.00728,44.694175 15.498786,9.371359 80.737862,173.37014 c 0,0 -24.509708,-183.82281 34.962378,-165.4405284 59.47209,18.3822814 86.50486,-6.1274271 86.50486,-6.1274271 0,0 -83.9818,49.7402915 -73.16869,98.7597055 C 139.84951,149.58131 5.7669903,85.063107 5.7669903,85.063107 c 0,0 199.3215997,-14.777913 185.6249997,10.813105 -13.6966,25.591018 -8.87461,70.134048 -8.87461,70.134048 L 155.3483,5.0461163 95.515775,69.564321 c 0,0 125.071605,138.407769 95.876215,143.093439 C 162.1966,217.34344 21.98665,108.4915 17.300971,121.82767 c -4.68568,13.33616 58.751213,76.41262 58.751213,76.41262 L 197.87985,124.71116 c 0,0 -164.164135,-55.984404 -154.266987,-79.296111 C 103.51368,-95.675122 14.777912,185.98543 14.777912,185.98543 c 0,0 54.425969,63.07646 83.621359,80.01699 C 127.59466,282.94295 201.12378,169.0449 201.12378,169.0449 L 30.997572,257.35194 c 0,0 5.406554,-77.85437 40.729368,-48.65898 35.32282,29.19539 114.25849,41.45024 114.25849,41.45024 l -45.77548,40.36893 68.48301,-23.42841 -123.99029,4.32525 -59.111651,20.5449 c 0,0 -3.238171,4.223 -4.297761,-10.79627 -1.042563,-14.77791 -61.015725,-64.53503 30.249218,-16.95736 94.051704,49.03045 55.867714,29.91625 55.867714,29.91625"
       id="path60"
       sodipodi:nodetypes="cccccscscscccssccscsccscccccssc" />
    <path
       style="fill:none;stroke:#000000;stroke-width:0.264583px;stroke-linecap:butt;stroke-linejoin:miter;stroke-opacity:1;fill-opacity:1;opacity:0.23717949;filter:url(#filter3987)"
       d="m 12.615291,149.58131 c 153.185679,4.32524 68.122571,77.13349 68.122571,77.13349 L 139.48908,83.621358 194.27548,34.241504 c 0,0 -138.277933,7.679248 -151.023054,15.498786 -138.689789,85.0906 116.894264,76.46084 116.858624,76.45803 L 180.93932,63.79733 7.7383377,40.153362 51.542476,187.42718 c 0,0 105.968444,30.63714 112.456304,32.79976 6.48787,2.16262 23.06623,-66.70564 -12.25485,-72.08738 C 87.022892,138.27825 20.544903,117.14199 20.544903,117.14199 L 0.72087377,219.14563 c 0,0 38.92718423,50.46116 72.08737823,34.2415 33.160188,-16.21966 135.633098,-31.84429 135.633098,-31.84429 l -40.47776,38.69259 -106.689319,30.63714 c 0,0 -71.366505,-42.53156 14.777913,-92.63228 C 162.1966,148.13956 101.42435,99.574667 101.42435,99.574667 85.805423,67.856223 156.75182,229.84558 54.38047,64.661885 c 0,0 63.48239,-22.851205 67.08676,-51.686157 3.60437,-28.834951 -25.951457,56.588593 -25.951457,56.588593 L 174.45145,6.8483008 209.0534,34.962377 c 0,0 -57.66991,90.830093 -27.75364,85.423543 29.91626,-5.40655 17.30097,-38.206309 17.30097,-38.206309 l -52.62379,100.201449 54.42597,103.80582"
       id="path168"
       sodipodi:nodetypes="ccccsccccssccscccsccscccsccc" />
  </g>
</svg>
